<svg width="33" height="28" viewBox="0 0 33 28" fill="none" xmlns="http://www.w3.org/2000/svg">
<path d="M27 27.5L28.9167 21.75L30.8333 16L32 12.5H26H24H17H10H8.5H1.5L2.9 16L5.2 21.75L7.5 27.5H12.5H17H22H27Z" fill="#ABDFAB"/>
<path d="M10 12.5L12.5 1H21L24 12.5M10 12.5H8.5M10 12.5H17M24 12.5H17M24 12.5H26M2.9 16L1.5 12.5H8.5M2.9 16H30.8333M2.9 16L5.2 21.75M30.8333 16L32 12.5H26M30.8333 16L28.9167 21.75M5.2 21.75L7.5 27.5H12.5M5.2 21.75H28.9167M28.9167 21.75L27 27.5H22M8.5 12.5L12.5 27.5M12.5 27.5H17M17 12.5V27.5M17 27.5H22M26 12.5L22 27.5" stroke="black"/>
</svg>
