<svg width="21" height="19" viewBox="0 0 21 19" fill="none" xmlns="http://www.w3.org/2000/svg">
<path d="M10.7118 4.54202L10.0425 5.28506C10.2396 5.46257 10.4991 5.55451 10.764 5.54065C11.0289 5.5268 11.2774 5.40827 11.4549 5.21116L10.7118 4.54202ZM10.7118 17.5L10.0783 18.2738L10.7285 18.8061L11.3649 18.2573L10.7118 17.5ZM4.92099 12.7593L5.55445 11.9855L5.54322 11.9763L5.53173 11.9674L4.92099 12.7593ZM16.2084 12.7593L15.6247 11.9473L15.5888 11.9731L15.5553 12.002L16.2084 12.7593ZM13.4601 15.1296L12.807 14.3724V14.3724L13.4601 15.1296ZM2.03719 6.49652C1.88317 4.96067 2.22403 3.98313 2.71222 3.40339C3.19561 2.82937 3.94522 2.5 4.92099 2.5V0.5C3.48336 0.5 2.12124 1.00026 1.1824 2.11512C0.248375 3.22428 -0.143481 4.79489 0.0471686 6.69607L2.03719 6.49652ZM4.92099 2.5C5.33065 2.5 5.85009 2.63367 6.44526 2.8924C7.02969 3.14647 7.62491 3.49353 8.16847 3.85424C8.70937 4.21318 9.18176 4.57402 9.51935 4.84573C9.68761 4.98115 9.82103 5.09334 9.91123 5.17063C9.9563 5.20926 9.99048 5.23909 10.0127 5.25867C10.0239 5.26845 10.032 5.27567 10.037 5.28013C10.0395 5.28236 10.0412 5.2839 10.0422 5.28473C10.0426 5.28514 10.0429 5.28538 10.0429 5.28544C10.043 5.28546 10.043 5.28545 10.0429 5.28538C10.0429 5.28535 10.0428 5.28527 10.0427 5.28525C10.0426 5.28516 10.0425 5.28506 10.7118 4.54202C11.381 3.79898 11.3809 3.79886 11.3807 3.79872C11.3807 3.79865 11.3805 3.7985 11.3804 3.79838C11.3801 3.79813 11.3798 3.79784 11.3794 3.7975C11.3786 3.79681 11.3776 3.79595 11.3765 3.7949C11.3741 3.79281 11.371 3.78998 11.367 3.78646C11.3591 3.77941 11.348 3.76954 11.3338 3.75705C11.3054 3.73206 11.2646 3.69654 11.2127 3.65198C11.1087 3.56292 10.9594 3.43745 10.7733 3.28768C10.4023 2.98901 9.87946 2.58934 9.27433 2.18778C8.67186 1.78798 7.97023 1.37454 7.24263 1.05823C6.52577 0.746587 5.71801 0.5 4.92099 0.5V2.5ZM10.7118 4.54202C11.4549 5.21116 11.4548 5.21131 11.4547 5.21145C11.4546 5.21148 11.4545 5.2116 11.4545 5.21166C11.4543 5.21178 11.4543 5.21186 11.4543 5.21189C11.4542 5.21195 11.4543 5.21183 11.4546 5.21153C11.4551 5.21094 11.4563 5.20963 11.4581 5.20764C11.4618 5.20365 11.4679 5.19693 11.4765 5.18764C11.4938 5.16906 11.5207 5.14028 11.5566 5.10275C11.6285 5.02762 11.736 4.91787 11.8731 4.78507C12.1486 4.51835 12.5376 4.16445 12.9935 3.81296C13.9588 3.06872 15.0152 2.5 15.8637 2.5V0.5C14.2995 0.5 12.7799 1.45229 11.7724 2.22906C11.2419 2.63807 10.7954 3.04468 10.4818 3.34834C10.3244 3.50073 10.1991 3.62864 10.1118 3.71987C10.0681 3.76552 10.0338 3.80209 10.0097 3.82807C9.99767 3.84107 9.98816 3.85142 9.98129 3.85895C9.97785 3.86271 9.97507 3.86577 9.97296 3.8681C9.97191 3.86926 9.97102 3.87025 9.9703 3.87104C9.96994 3.87144 9.96962 3.87179 9.96934 3.8721C9.96921 3.87225 9.96903 3.87245 9.96896 3.87252C9.9688 3.8727 9.96864 3.87288 10.7118 4.54202ZM15.8637 2.5C16.8294 2.5 17.5687 2.82363 18.0813 3.4145C18.6086 4.02243 19 5.03466 19 6.5963H21C21 4.7209 20.5297 3.18498 19.5921 2.10402C18.6397 1.006 17.3109 0.5 15.8637 0.5V2.5ZM11.3452 16.7262L5.55445 11.9855L4.28752 13.533L10.0783 18.2738L11.3452 16.7262ZM4.92099 12.7593C5.53173 11.9674 5.53194 11.9676 5.53213 11.9677C5.53217 11.9678 5.53235 11.9679 5.53244 11.968C5.53263 11.9681 5.53276 11.9682 5.53284 11.9683C5.53299 11.9684 5.53294 11.9684 5.53268 11.9682C5.53217 11.9678 5.53082 11.9667 5.52868 11.965C5.5244 11.9617 5.51692 11.9558 5.50644 11.9474C5.48549 11.9306 5.45259 11.9039 5.40938 11.8678C5.32287 11.7956 5.19543 11.686 5.03984 11.5431C4.72766 11.2564 4.30752 10.8403 3.87882 10.3262C3.00257 9.27549 2.18019 7.92256 2.03719 6.49652L0.0471686 6.69607C0.24883 8.70707 1.36585 10.4356 2.34285 11.6071C2.84076 12.2042 3.3257 12.6843 3.68694 13.0161C3.86806 13.1825 4.01942 13.3128 4.12753 13.403C4.18162 13.4482 4.225 13.4834 4.25598 13.5082C4.27148 13.5207 4.28388 13.5305 4.29299 13.5376C4.29755 13.5412 4.30128 13.5441 4.30416 13.5464C4.3056 13.5475 4.30683 13.5484 4.30785 13.5492C4.30835 13.5496 4.30881 13.55 4.30921 13.5503C4.30941 13.5504 4.30966 13.5506 4.30976 13.5507C4.31001 13.5509 4.31024 13.5511 4.92099 12.7593ZM19 6.5963C19 7.95924 18.236 9.27143 17.3434 10.3176C16.9093 10.8265 16.4727 11.2396 16.1445 11.5252C15.9811 11.6674 15.8463 11.7764 15.7545 11.8483C15.7087 11.8842 15.6737 11.9108 15.6514 11.9275C15.6403 11.9358 15.6324 11.9417 15.6278 11.945C15.6256 11.9467 15.6241 11.9477 15.6236 11.9481C15.6233 11.9483 15.6233 11.9483 15.6235 11.9482C15.6236 11.9481 15.6237 11.948 15.6239 11.9479C15.624 11.9478 15.6242 11.9477 15.6243 11.9476C15.6245 11.9475 15.6247 11.9473 16.2084 12.7593C16.7922 13.5712 16.7924 13.571 16.7927 13.5708C16.7928 13.5707 16.7931 13.5705 16.7933 13.5704C16.7937 13.5701 16.7942 13.5697 16.7948 13.5693C16.7959 13.5685 16.7972 13.5676 16.7988 13.5664C16.8019 13.5642 16.8059 13.5612 16.8108 13.5576C16.8206 13.5505 16.8339 13.5406 16.8506 13.5281C16.8839 13.5032 16.9303 13.4678 16.9882 13.4225C17.1038 13.3319 17.2652 13.2011 17.4572 13.0341C17.8399 12.7011 18.3512 12.2179 18.865 11.6157C19.8682 10.4397 21 8.67039 21 6.5963H19ZM15.5553 12.002L12.807 14.3724L14.1132 15.8869L16.8615 13.5165L15.5553 12.002ZM12.807 14.3724L10.0587 16.7427L11.3649 18.2573L14.1132 15.8869L12.807 14.3724Z" fill="#437532"/>
</svg>
