<svg width="30" height="25" viewBox="0 0 30 25" fill="none" xmlns="http://www.w3.org/2000/svg">
<path d="M15.0878 5.27784L14.4301 6.0311C14.8371 6.38648 15.4528 6.35429 15.8205 5.95839L15.0878 5.27784ZM15.0878 23.5L14.4661 24.2833L15.1042 24.7897L15.7292 24.2672L15.0878 23.5ZM6.68773 16.8333L7.30939 16.05L7.29811 16.0411L7.28657 16.0325L6.68773 16.8333ZM23.0612 16.8333L22.4894 16.0129L22.4534 16.038L22.4197 16.0662L23.0612 16.8333ZM19.0745 20.1667L18.433 19.3995L19.0745 20.1667ZM2.05588 8.06377C1.82564 5.83796 2.32796 4.3489 3.12911 3.42662C3.92969 2.50499 5.15791 2 6.68773 2V0C4.71672 0 2.88169 0.661679 1.61921 2.11504C0.3573 3.56776 -0.203234 5.66204 0.0664907 8.26956L2.05588 8.06377ZM6.68773 2C7.37517 2 8.19745 2.21427 9.08879 2.58992C9.96988 2.96125 10.8578 3.46416 11.6595 3.97992C12.4587 4.49404 13.1553 5.00994 13.6524 5.39784C13.9005 5.59137 14.0975 5.752 14.2314 5.86322C14.2983 5.91881 14.3494 5.96198 14.383 5.99067C14.3998 6.00501 14.4123 6.01572 14.4202 6.02255C14.4241 6.02596 14.4269 6.0284 14.4286 6.02984C14.4294 6.03056 14.43 6.03102 14.4302 6.03124C14.4303 6.03134 14.4304 6.03138 14.4304 6.03136C14.4303 6.03135 14.4303 6.03129 14.4303 6.03128C14.4302 6.0312 14.4301 6.0311 15.0878 5.27784C15.7455 4.52458 15.7454 4.52445 15.7452 4.5243C15.7451 4.52423 15.7449 4.52407 15.7448 4.52393C15.7444 4.52365 15.744 4.5233 15.7436 4.52289C15.7426 4.52206 15.7414 4.52098 15.7398 4.51964C15.7367 4.51697 15.7325 4.51327 15.7271 4.50859C15.7162 4.49923 15.7007 4.48592 15.6808 4.46893C15.641 4.43496 15.5833 4.38622 15.5094 4.32484C15.3617 4.20212 15.1487 4.02853 14.8827 3.82102C14.3519 3.40682 13.6048 2.85326 12.7416 2.29792C11.8809 1.74422 10.8876 1.17767 9.86551 0.746906C8.85364 0.320459 7.7507 0 6.68773 0V2ZM15.0878 5.27784C15.8205 5.95839 15.8203 5.95853 15.8202 5.95866C15.8202 5.95868 15.8201 5.95879 15.8201 5.95883C15.82 5.95891 15.82 5.95893 15.82 5.95888C15.8201 5.95878 15.8204 5.95843 15.821 5.95783C15.8221 5.95663 15.8242 5.95443 15.8272 5.95126C15.8331 5.94492 15.8428 5.9347 15.856 5.92086C15.8825 5.89318 15.9232 5.85107 15.977 5.79659C16.0846 5.68756 16.2444 5.52939 16.4478 5.33849C16.8556 4.95562 17.4327 4.44664 18.1107 3.93991C19.5177 2.88827 21.1588 2 22.5612 2V0C20.4636 -2.38419e-07 18.368 1.25065 16.9133 2.33793C16.1604 2.90066 15.5254 3.46114 15.0789 3.88036C14.855 4.09052 14.677 4.26655 14.5537 4.39147C14.492 4.45395 14.4439 4.50375 14.4105 4.53874C14.3937 4.55623 14.3807 4.57003 14.3714 4.57988C14.3668 4.5848 14.3631 4.58873 14.3603 4.59165C14.359 4.5931 14.3579 4.5943 14.357 4.59525C14.3565 4.59572 14.3562 4.59612 14.3558 4.59646C14.3557 4.59663 14.3555 4.59684 14.3554 4.59693C14.3552 4.59712 14.3551 4.59729 15.0878 5.27784ZM22.5612 2C24.0807 2 25.2889 2.49937 26.1284 3.43763C26.9794 4.38872 27.5612 5.91409 27.5612 8.16667H29.5612C29.5612 5.58591 28.8929 3.52795 27.6189 2.10404C26.3334 0.667293 24.5416 2.38419e-07 22.5612 0V2ZM15.7094 22.7167L7.30939 16.05L6.06608 17.6166L14.4661 24.2833L15.7094 22.7167ZM6.68773 16.8333C7.28657 16.0325 7.28677 16.0326 7.28695 16.0327C7.28698 16.0328 7.28714 16.0329 7.28721 16.0329C7.28735 16.033 7.28741 16.0331 7.28739 16.0331C7.28736 16.0331 7.28702 16.0328 7.28638 16.0323C7.2851 16.0313 7.28262 16.0295 7.27897 16.0267C7.27168 16.0211 7.25973 16.012 7.24342 15.9993C7.21078 15.974 7.16074 15.9346 7.09563 15.8819C6.96534 15.7764 6.7752 15.618 6.54388 15.412C6.08021 14.9991 5.45673 14.4005 4.82004 13.6604C3.52593 12.156 2.27476 10.1798 2.05588 8.06377L0.0664907 8.26956C0.34757 10.9868 1.90967 13.344 3.30385 14.9646C4.0113 15.787 4.70072 16.4488 5.2139 16.9057C5.47101 17.1346 5.68529 17.3134 5.83731 17.4365C5.91336 17.498 5.97395 17.5457 6.01666 17.5789C6.03801 17.5955 6.05491 17.6084 6.06705 17.6177C6.07312 17.6223 6.078 17.626 6.08165 17.6288C6.08348 17.6301 6.085 17.6313 6.0862 17.6322C6.08681 17.6326 6.08734 17.633 6.08778 17.6334C6.08801 17.6335 6.08829 17.6337 6.0884 17.6338C6.08865 17.634 6.08889 17.6342 6.68773 16.8333ZM27.5612 8.16667C27.5612 10.2169 26.381 12.1512 25.0604 13.6519C24.4136 14.3869 23.764 14.9827 23.2758 15.3944C23.0324 15.5997 22.831 15.7577 22.6925 15.8629C22.6234 15.9155 22.5701 15.9547 22.5353 15.98C22.5179 15.9926 22.5052 16.0017 22.4974 16.0072C22.4935 16.01 22.4909 16.0119 22.4895 16.0128C22.4888 16.0133 22.4885 16.0135 22.4885 16.0136C22.4884 16.0136 22.4885 16.0135 22.4887 16.0134C22.4887 16.0134 22.4889 16.0132 22.489 16.0132C22.4891 16.0131 22.4894 16.0129 23.0612 16.8333C23.6329 17.6537 23.6332 17.6536 23.6335 17.6534C23.6336 17.6533 23.6339 17.6531 23.6342 17.6529C23.6346 17.6526 23.6352 17.6522 23.6359 17.6517C23.6372 17.6508 23.6388 17.6496 23.6408 17.6482C23.6447 17.6455 23.65 17.6418 23.6565 17.6371C23.6695 17.6279 23.6877 17.6149 23.7106 17.5982C23.7563 17.565 23.8212 17.5171 23.9024 17.4554C24.0648 17.3321 24.293 17.1529 24.5653 16.9233C25.1083 16.4653 25.8337 15.8006 26.5619 14.9731C27.9913 13.3488 29.5612 10.9497 29.5612 8.16667H27.5612ZM22.4197 16.0662L18.433 19.3995L19.7159 20.9338L23.7026 17.6005L22.4197 16.0662ZM18.433 19.3995L14.4463 22.7328L15.7292 24.2672L19.7159 20.9338L18.433 19.3995Z" fill="#437532"/>
</svg>
